HIERARCHY
ROOT root     
{
	OFFSET 0.0000 0.0000 0.0000
	CHANNELS 6 Xposition Yposition Zposition Zrotation Yrotation Xrotation
	JOINT pelvis   
	{
		OFFSET 0.0000 0.0000 0.0000
		CHANNELS 3 Zrotation Yrotation Xrotation
		JOINT thorax   
		{
			OFFSET 0.0000 23.0750 -5.0000
			CHANNELS 3 Zrotation Yrotation Xrotation
			JOINT rclavicle
			{
				OFFSET 0.0000 28.0009 0.0000
				CHANNELS 3 Zrotation Yrotation Xrotation
				JOINT rhumerus 
				{
					OFFSET -18.5725 5.5939 0.0000
					CHANNELS 3 Zrotation Yrotation Xrotation
					JOINT rradius  
					{
						OFFSET -24.8459 0.0000 0.0000
						CHANNELS 3 Zrotation Yrotation Xrotation
						JOINT rhand    
						{
							OFFSET -24.5477 0.0000 0.0000
							CHANNELS 3 Zrotation Yrotation Xrotation
							End Site
							{
								OFFSET -8.1826 0.0000 0.0000
							}
						}
					}
				}
			}
			JOINT lclavicle
			{
				OFFSET 0.0000 28.0009 0.0000
				CHANNELS 3 Zrotation Yrotation Xrotation
				JOINT lhumerus 
				{
					OFFSET 18.5725 5.5939 0.0000
					CHANNELS 3 Zrotation Yrotation Xrotation
					JOINT lradius  
					{
						OFFSET 24.8459 0.0000 0.0000
						CHANNELS 3 Zrotation Yrotation Xrotation
						JOINT lhand    
						{
							OFFSET 24.5477 0.0000 0.0000
							CHANNELS 3 Zrotation Yrotation Xrotation
							End Site
							{
								OFFSET 8.1826 0.0000 0.0000
							}
						}
					}
				}
			}
			JOINT head     
			{
				OFFSET 0.0000 35.2030 0.0000
				CHANNELS 3 Zrotation Yrotation Xrotation
				End Site
				{
					OFFSET 0.0000 11.7343 0.0000
				}
			}
		}
		JOINT rfemur   
		{
			OFFSET -8.2817 0.0000 0.0000
			CHANNELS 3 Zrotation Yrotation Xrotation
			JOINT rtibia   
			{
				OFFSET 0.0000 -43.3627 0.0000
				CHANNELS 3 Zrotation Yrotation Xrotation
				JOINT rfoot    
				{
					OFFSET 0.0000 -38.2947 0.0000
					CHANNELS 3 Zrotation Yrotation Xrotation
					JOINT rtoes    
					{
						OFFSET 0.0000 0.0000 16.6054
						CHANNELS 3 Zrotation Yrotation Xrotation
						End Site
						{
							OFFSET 0.0000 0.0000 5.5351
						}
					}
				}
			}
		}
		JOINT lfemur   
		{
			OFFSET 8.2817 0.0000 0.0000
			CHANNELS 3 Zrotation Yrotation Xrotation
			JOINT ltibia   
			{
				OFFSET 0.0000 -43.3627 0.0000
				CHANNELS 3 Zrotation Yrotation Xrotation
				JOINT lfoot    
				{
					OFFSET 0.0000 -38.2947 0.0000
					CHANNELS 3 Zrotation Yrotation Xrotation
					JOINT ltoes    
					{
						OFFSET 0.0000 0.0000 16.6054
						CHANNELS 3 Zrotation Yrotation Xrotation
						End Site
						{
							OFFSET 0.0000 0.0000 5.5351
						}
					}
				}
			}
		}
	}
}
MOTION
Frames: 17
Frame Time: .0333333
58.696 73.834 10.563 97.4533 -88.7742 -75.5981 0 -0 0 8.89854 -0.403194 22.8107 17.2082 -5.21339 8.98135e-06 52.7993 -0.674148 12.4686 -180 81.5035 -180 -16.5104 4.933 -0.716097 -11.5131 13.6073 -5.1965e-05 -58.759 26.5555 24.6654 -2.35107e-06 -83.2493 2.0892e-06 4.14732 5.39344 0.195402 5.8415 -10.7254 -6.99659 8.97012 -9.37139 -47.9432 -0 -0 66.0066 1.89859e-05 -11.089 -28.4095 5.32736 8.60204e-06 -19.5401 0.415443 6.4357 -53.5748 -0 -0 89.9752 9.49478e-05 13.8153 -14.1786 -3.44728 -7.42439e-06 -17.204 
57.558 73.99 10.472 104.094 -88.6443 -82.3614 0 -0 0 8.46662 0.255244 22.7182 16.3676 -5.10071 2.4258e-05 52.8511 -0.0677582 12.5366 -180 80.8319 -180 -16.3485 5.15656 -0.741203 -11.4789 13.9305 -3.84045e-05 -57.6337 28.0088 25.2819 -2.50013e-06 -83.6751 2.23832e-06 3.43853 4.81555 0.144602 5.81983 -10.7355 -6.89099 8.72753 -9.41069 -46.6974 -0 -0 65.5275 4.77668e-05 -11.2091 -28.6593 5.42929 3.53817e-05 -20.7655 -0.0763229 6.12333 -54.4637 -0 -0 88.987 1.74645e-05 14.0001 -14.3919 -3.54613 -8.48207e-06 -16.6048 
56.368 74.194 10.426 132.127 -87.9333 -110.654 0 -0 0 7.48488 1.72213 22.9113 15.7187 -4.99724 1.37651e-05 52.8227 0.485598 12.5688 -180 80.1091 -180 -16.2344 5.31163 -0.758093 -11.2759 14.275 -6.94441e-05 -56.52 29.4309 25.8617 2.20162e-06 -84.2481 -2.7526e-06 2.64707 4.16485 0.0962986 5.91945 -10.7502 -6.81049 7.96309 -8.63369 -45.2063 -0 -0 64.9278 4.36261e-05 -11.3557 -28.7226 5.51267 1.63809e-05 -22.0717 -1.04894 6.66143 -54.9558 -0 -0 87.782 2.04086e-05 14.1793 -14.6883 -3.66552 8.36587e-06 -15.9534 
55.194 74.44 10.327 132.748 -87.7961 -111.406 0 -0 0 7.061 2.33836 22.787 15.0423 -4.91574 -6.32408e-06 52.6919 0.902052 12.6158 -180 79.3304 -180 -16.1457 5.40979 -0.767824 -11.1221 14.6596 -3.51363e-05 -55.4004 30.8827 26.4692 2.53353e-06 -84.9312 -3.08431e-06 1.8151 3.48172 0.0552008 5.8754 -10.778 -6.65266 7.72711 -8.62104 -43.7521 -0 -0 64.0449 -7.07271e-05 -11.5032 -28.7489 5.59037 -2.36287e-05 -23.0991 -1.55568 6.41609 -55.7178 -0 -0 86.5119 -2.69922e-05 14.3505 -14.7585 -3.72864 3.01924e-05 -15.5196 
54.003 74.73 10.225 132.695 -87.6983 -111.471 0 -0 0 6.63693 2.93092 22.635 14.4578 -4.85343 1.50652e-05 52.4799 1.22922 12.649 -180 78.5165 -180 -16.0566 5.47296 -0.77248 -10.897 15.063 -4.3532e-05 -54.3039 32.2915 27.0999 1.77019e-06 -85.6594 -2.35373e-06 0.988301 2.81248 0.0242999 5.81866 -10.8247 -6.46898 7.48948 -8.58629 -42.2161 -0 -0 62.9712 -2.82639e-05 -11.6574 -28.6629 5.65161 -4.712e-05 -23.9757 -2.07937 6.1972 -56.4157 -0 -0 85.0928 -1.13287e-05 14.5311 -14.7648 -3.77929 7.89089e-06 -15.1717 
52.799 75.064 10.123 131.952 -87.6212 -110.826 0 -0 0 6.21109 3.49781 22.4434 13.9639 -4.81548 -2.02894e-05 52.2089 1.47375 12.6695 -180 77.6775 -180 -15.9507 5.52447 -0.774619 -10.6001 15.4832 -3.91797e-06 -53.2342 33.627 27.7789 3.28433e-06 -86.389 -3.4979e-06 0.208801 2.19604 0.00400019 5.74493 -10.8947 -6.26565 7.24837 -8.53451 -40.6233 -0 -0 61.7294 1.4716e-05 -11.8108 -28.4592 5.69046 -1.98404e-05 -24.7093 -2.62616 5.9981 -57.0572 -0 -0 83.5099 -5.85943e-05 14.7342 -14.7158 -3.82172 1.88159e-05 -14.8945 
51.584 75.443 10.023 130.449 -87.5721 -109.39 0 -0 0 5.78376 4.03543 22.2111 13.5527 -4.8017 -2.72606e-05 51.9008 1.63837 12.6749 -180 76.8406 -180 -15.81 5.58238 -0.775693 -10.2555 15.8959 -4.73041e-05 -52.1817 34.891 28.5035 -2.17962e-06 -87.1269 2.07287e-06 -0.489089 1.6583 -0.0070998 5.64833 -10.9891 -6.05192 7.00047 -8.47718 -38.9979 -0 -0 60.3437 0.000145497 -11.9507 -28.1271 5.69801 5.66541e-06 -25.3783 -3.20123 5.8105 -57.639 -0 -0 81.7498 -1.84037e-05 14.961 -14.6228 -3.85931 1.18579e-05 -14.677 
50.363 75.865 9.9266 128.146 -87.538 -107.109 0 -0 0 5.353 4.5427 21.929 13.2051 -4.82173 2.29077e-05 51.5927 1.73684 12.6763 -180 76.0116 -180 -15.631 5.66937 -0.778791 -9.86662 16.3128 2.01506e-05 -51.1437 36.0406 29.302 7.30298e-06 -87.8283 -7.58538e-06 -1.0842 1.21911 -0.0115 5.52482 -11.1074 -5.84024 6.74449 -8.42112 -37.3745 -0 -0 58.8497 3.78563e-05 -12.0651 -27.6461 5.66391 -2.3701e-05 -26.1065 -3.8065 5.62664 -58.1672 -0 -0 79.7956 -0.000122781 15.2093 -14.4968 -3.89299 6.27962e-06 -14.4946 
49.138 76.327 9.8365 125.046 -87.5167 -103.986 0 -0 0 4.91963 5.01696 21.604 12.9121 -4.87629 -6.35208e-06 51.3099 1.7761 12.6785 -180 75.2035 -180 -15.4164 5.79294 -0.784704 -9.46401 16.717 -6.87725e-06 -50.1071 37.0797 30.1625 -5.85437e-06 -88.4943 5.70341e-06 -1.56698 0.881401 -0.0120998 5.36958 -11.2484 -5.64075 6.47724 -8.38189 -35.7758 -0 -0 57.2801 3.52361e-05 -12.1325 -26.9958 5.57339 -1.32239e-05 -27.0316 -4.44124 5.43779 -58.6308 -0 -0 77.6289 7.28504e-05 15.4654 -14.3378 -3.91985 -1.92628e-06 -14.3388 
47.91 76.828 9.7547 121.226 -87.4947 -100.093 0 -0 0 4.48399 5.45718 21.2432 12.6576 -4.96738 -1.04485e-05 51.0732 1.76604 12.6917 -180 74.4312 -180 -15.1737 5.95712 -0.794182 -9.07279 17.1016 1.35716e-06 -49.0635 38.0033 31.0757 8.27429e-06 -89.1304 -8.86518e-06 -1.93839 0.638197 -0.0108 5.17942 -11.4095 -5.4618 6.19715 -8.37535 -34.2262 -0 -0 55.6785 -1.03951e-05 -12.1315 -26.1473 5.4115 -3.03416e-05 -28.297 -5.10188 5.23697 -59.0175 -0 -0 75.2338 0.000145893 15.7116 -14.1449 -3.9328 1.26069e-05 -14.2071 
46.681 77.362 9.6822 116.888 -87.4667 -95.6342 0 -0 0 4.04793 5.86524 20.8508 12.4264 -5.09665 -2.58167e-06 50.9045 1.71682 12.7297 -180 73.7054 -180 -14.919 6.16108 -0.807503 -8.7098 17.4693 8.24006e-05 -48.0148 38.8001 32.0304 4.71243e-05 -89.7703 -4.77056e-05 -2.21219 0.478296 -0.00919997 4.95266 -11.5868 -5.3083 5.90368 -8.41223 -32.7455 -0 -0 54.0798 -3.86491e-05 -12.0394 -25.0712 5.16419 2.70551e-06 -30.0636 -5.77943 5.01984 -59.3178 -0 -0 72.6018 -6.35807e-05 15.9207 -13.9051 -3.92134 -1.40031e-06 -14.1147 
45.448 77.924 9.6214 112.313 -87.4218 -90.901 0 -0 0 3.61051 6.24249 20.4471 12.2147 -5.25856 -5.36248e-06 50.8091 1.63383 12.8001 -180 73.0231 -180 -14.6639 6.3934 -0.823458 -8.40571 17.8006 2.71038e-05 -46.9625 39.4991 32.9855 -180 -89.5262 180 -2.40381 0.375501 -0.00790011 4.68939 -11.7791 -5.18156 5.59232 -8.51411 -31.3482 -0 -0 52.5288 6.11387e-05 -11.8265 -23.743 4.81895 8.97252e-06 -32.4195 -6.46782 4.78272 -59.5096 -0 -0 69.7282 -2.82104e-05 16.0671 -13.5949 -3.8729 1.39905e-06 -14.0821 
44.211 78.508 9.5721 107.872 -87.336 -86.2721 0 -0 0 3.17426 6.59497 20.0389 12.0114 -5.45148 -9.6687e-06 50.7934 1.52597 12.9162 -180 72.3966 -180 -14.4245 6.64619 -0.842012 -8.16172 18.1061 4.16924e-05 -45.9259 40.0902 33.9276 180 -88.9135 -180 -2.5373 0.311005 -0.00690016 4.39107 -11.9807 -5.07973 5.26432 -8.68508 -30.0482 -0 -0 51.063 -4.52371e-05 -11.4744 -22.1392 4.37457 7.61633e-05 -35.4507 -7.15283 4.5271 -59.5874 -0 -0 66.6222 2.10304e-05 16.1302 -13.1872 -3.77476 -2.0302e-05 -14.1567 
42.967 79.106 9.5348 103.956 -87.2369 -82.1492 0 -0 0 2.73841 6.9296 19.6423 11.8143 -5.66683 1.08621e-05 50.8543 1.39683 13.0848 -180 71.819 -180 -14.2065 6.90566 -0.861617 -7.98605 18.3821 5.48085e-05 -44.9237 40.5902 34.8231 -180 -88.2611 180 -2.63394 0.259996 -0.00600001 4.0602 -12.1836 -4.99914 4.91659 -8.93339 -28.8523 -0 -0 49.7222 2.86526e-05 -10.9649 -20.2542 3.83724 3.77545e-05 -39.1476 -7.82376 4.25598 -59.536 -0 -0 63.3042 -1.99891e-05 16.0972 -12.6543 -3.61744 -4.69722e-06 -14.3874 
41.716 79.708 9.5062 100.866 -87.1247 -78.8388 0 -0 0 2.3128 7.25547 19.265 11.6147 -5.89684 2.27396e-05 50.9921 1.24877 13.3131 -180 71.2935 -180 -14.0128 7.16533 -0.881726 -7.87198 18.6428 -1.48485e-05 -43.9782 41.0009 35.6546 -180 -87.5998 180 -2.7163 0.208397 -0.00489989 3.69795 -12.3822 -4.93465 4.55906 -9.24252 -27.7722 -0 -0 48.5341 -2.87511e-05 -10.2998 -18.0904 3.22975 5.29413e-06 -43.4445 -8.458 3.98096 -59.3634 -0 -0 59.8152 1.37223e-05 15.9681 -11.9702 -3.3965 1.23759e-07 -14.8335 
40.469 80.292 9.4352 80.959 -87.1084 -58.6433 0 -0 0 2.4037 6.73929 18.7472 11.3248 -6.13153 5.69711e-06 51.1782 1.0295 13.6289 -180 70.8062 -180 -13.8374 7.41382 -0.900873 -7.90788 18.8971 3.19023e-05 -43.0648 41.3899 36.4444 180 -86.9478 180 -2.79976 0.135201 -0.00329991 3.19422 -12.5631 -4.82143 4.67862 -10.4367 -26.807 -0 -0 47.3725 4.94807e-05 -9.46056 -15.7089 2.58323 -2.26227e-06 -48.0513 -8.5584 2.86607 -59.1836 -0 -0 56.2353 0.00011469 15.7864 -10.9487 -3.07369 -2.66311e-06 -15.6524 
39.196 80.872 9.4172 80.6209 -86.9991 -58.0942 0 -0 0 2.0086 7.07204 18.4424 11.1225 -6.35492 -8.51386e-06 51.4377 0.846051 13.9715 -180 70.3677 -180 -13.6734 7.64268 -0.917697 -7.89867 19.1369 3.36757e-05 -42.304 41.6703 37.0786 -180 -86.2938 180 -2.88941 0.0319002 -0.000800013 2.77597 -12.7166 -4.77586 4.3129 -10.8329 -25.9532 -0 -0 46.5643 1.98808e-05 -8.49931 -13.0945 1.93912 2.42198e-05 -52.8119 -9.07302 2.61306 -58.782 -0 -0 52.5602 -2.18568e-05 15.5148 -9.9505 -2.74644 -1.99447e-05 -16.6341 
